<?xml version="1.0" encoding="UTF-8" standalone="no"?>
<!DOCTYPE svg PUBLIC "-//W3C//DTD SVG 1.1//EN" "http://www.w3.org/Graphics/SVG/1.1/DTD/svg11.dtd">
<svg width="100%" height="100%" viewBox="0 0 512 512" version="1.1" xmlns="http://www.w3.org/2000/svg" xmlns:xlink="http://www.w3.org/1999/xlink" xml:space="preserve" xmlns:serif="http://www.serif.com/" style="fill-rule:evenodd;clip-rule:evenodd;stroke-linejoin:round;stroke-miterlimit:2;">
    <g transform="matrix(1.51959,0,0,1.51959,-133.013,-133.013)">
        <g>
            <path d="M368.896,153.381C347.519,143.604 324.955,136.667 301.778,132.744C298.62,138.416 295.759,144.249 293.208,150.219C280.879,148.359 268.429,147.423 255.961,147.419C243.514,147.419 231.006,148.365 218.711,150.195C216.2,144.268 213.284,138.391 210.119,132.741C186.941,136.701 164.375,143.653 142.986,153.422C100.507,216.263 88.995,277.534 94.751,337.935C119.625,356.307 147.465,370.28 177.059,379.247C183.696,370.288 189.641,360.75 194.689,350.824C185.058,347.236 175.764,342.801 166.917,337.571C169.245,335.883 171.522,334.144 173.722,332.454C199.448,344.537 227.558,350.839 255.999,350.839C284.441,350.839 312.55,344.537 338.278,332.452C340.504,334.269 342.781,336.009 345.083,337.569C336.218,342.809 326.907,347.256 317.26,350.858C322.325,360.805 328.223,370.306 334.891,379.258C364.512,370.32 392.375,356.347 417.254,337.953L417.247,337.96C424.001,267.915 405.709,207.207 368.896,153.381ZM201.968,300.789C185.928,300.789 172.676,286.232 172.676,268.324C172.676,250.416 185.467,235.732 201.917,235.732C218.367,235.732 231.516,250.416 231.235,268.324C230.953,286.232 218.316,300.789 201.968,300.789ZM310.03,300.789C293.964,300.789 280.763,286.232 280.763,268.324C280.763,250.416 293.554,235.732 310.03,235.732C326.505,235.732 339.552,250.416 339.271,268.324C338.99,286.232 326.377,300.789 310.03,300.789Z" style="fill:white;fill-rule:nonzero;"/>
        </g>
    </g>
</svg>
